<svg xmlns="http://www.w3.org/2000/svg" viewBox="0 0 32 32"><title>49-Clock</title><g id="_49-Clock" data-name="49-Clock"><path d="M16,0A16,16,0,1,0,32,16,16,16,0,0,0,16,0ZM27.45,24l-1.74-1.74-1.41,1.41,1.88,1.88A14,14,0,0,1,17,29.95V27H15v2.95a14,14,0,0,1-9.17-4.36l1.88-1.88L6.29,22.29,4.55,24a13.9,13.9,0,0,1-2.5-7H5V15H2.05a13.9,13.9,0,0,1,2.5-7L6.29,9.71,7.71,8.29,5.83,6.41A14,14,0,0,1,15,2.05V5h2V2.05a14,14,0,0,1,9.17,4.36L24.29,8.29l1.41,1.41L27.45,8a13.9,13.9,0,0,1,2.5,7H27v2h2.95A13.9,13.9,0,0,1,27.45,24Z"/><path d="M17,9H15v7a1,1,0,0,0,.29.71l5,5,1.41-1.41L17,15.59Z"/></g></svg>